# Blender v3.1.2 OBJ File: 'PaperPlane.blend'
# www.blender.org
mtllib PaperPlane.mtl
o Plane
v 0.206087 -0.028063 0.297000
v 0.032193 0.001721 0.297000
v 0.000000 -0.091370 0.297000
v 0.000000 0.001721 -0.297000
v -0.206087 -0.028063 0.297000
v -0.032193 0.001721 0.297000
vt 0.500000 0.000000
vt 0.750000 0.000000
vt 0.500000 1.000000
vt 1.000000 0.000000
vt 0.750000 0.000000
vt 1.000000 0.000000
vn -0.9438 0.3264 0.0512
vn 0.1688 0.9856 -0.0091
vn 0.9438 0.3264 0.0512
vn -0.1688 0.9856 -0.0091
usemtl None
s off
f 3/1/1 2/2/1 4/3/1
f 4/3/2 2/2/2 1/4/2
f 3/1/3 4/3/3 6/5/3
f 4/3/4 5/6/4 6/5/4
